<?xml version="1.0" encoding="utf-8"?>
<!-- Generator: Adobe Illustrator 22.0.1, SVG Export Plug-In . SVG Version: 6.00 Build 0)  -->
<svg version="1.1" id="Capa_1" xmlns="http://www.w3.org/2000/svg" xmlns:xlink="http://www.w3.org/1999/xlink" x="0px" y="0px"
	 viewBox="0 0 512 512" style="enable-background:new 0 0 512 512;" xml:space="preserve">
<style type="text/css">
	.st0{fill:#F9BC23;}
</style>
<g>
	<path class="st0" d="M420.4,133.8c-2-3.5-4.5-6-8.3-7.4L301,86c0.4-12.1-4-24.3-13.1-33.4c-18.9-18.9-50.5-17.4-67.4,4.1
		L109.7,16.4l0,0c-7.8-2.8-15.6,1.3-18.5,7.4L20.9,163.2h33.6l50.1-99.6l50.7,99.6H189L135.2,57.6L211,85.2
		c0.3,19.3,12.6,35.6,30,41.7v291.3c0,8.3,6.7,15,15,15c8.3,0,15-6.7,15-15V126.9c7.3-2.6,13.9-7,19-13l95.9,34.9l-63.1,125.4h33.6
		l50.5-100.4l50.6,100.4h33.6L420.4,133.8z M266.6,95.1c-5.9,5.9-15.4,5.9-21.3,0s-5.9-15.4,0-21.3s15.4-5.9,21.3,0
		C272.5,79.7,272.5,89.2,266.6,95.1z"/>
	<path class="st0" d="M273.7,404.2h-35.3c-42.6,0-77.3,34.7-77.3,77.3c0,8.3,6.7,15,15,15H336c8.3,0,15-6.7,15-15
		C350.9,438.9,316.3,404.2,273.7,404.2z"/>
	<path class="st0" d="M497,304.3H317c-8.3,0-15,6.7-15,15c0,57.9,47.1,105,105,105s105-47.1,105-105C512,311,505.3,304.3,497,304.3z
		"/>
	<path class="st0" d="M195.1,193.2H15c-8.3,0-15,6.7-15,15c0,57.9,47.1,105.1,105.1,105.1s105.1-47.1,105.1-105.1
		C210.1,199.9,203.4,193.2,195.1,193.2z"/>
</g>
</svg>
