<?xml version="1.0" encoding="utf-8"?>
<!-- Generator: Adobe Illustrator 22.0.1, SVG Export Plug-In . SVG Version: 6.00 Build 0)  -->
<svg version="1.1" id="Layer_1" xmlns="http://www.w3.org/2000/svg" xmlns:xlink="http://www.w3.org/1999/xlink" x="0px" y="0px"
	 viewBox="0 0 512 512" style="enable-background:new 0 0 512 512;" xml:space="preserve">
<style type="text/css">
	.st0{fill:#F9BC23;}
</style>
<path class="st0" d="M193.8,343.7c2.9,4.1,7.6,6.4,12.3,6.4c3,0,6-0.9,8.6-2.7l24.5-17.3c6.8-4.8,8.4-14.1,3.6-20.9L139.1,162
	c-4.8-6.8-14.1-8.4-20.9-3.6l-24.5,17.3c-6.8,4.8-8.4,14.1-3.6,20.9L193.8,343.7z"/>
<path class="st0" d="M337.3,260.8c21.7-15.3,40.2-33.2,54.8-52.5l-108-153.1c-23.1,7.2-46.1,18.7-67.8,34s-40.2,33.2-54.8,52.5
	l108,153.1C292.6,287.6,315.7,276.1,337.3,260.8z"/>
<path class="st0" d="M414.5,188c4.8,6.8,14.1,8.4,20.9,3.6l24.5-17.3c6.8-4.8,8.4-14.1,3.6-20.9L359.7,6.4
	C355-0.4,345.6-2,338.8,2.7L314.3,20c-6.8,4.8-8.4,14.1-3.6,20.9L414.5,188z"/>
<path class="st0" d="M354.6,285.3c-12.6,8.9-25.7,16.3-39,22.8l36.8,52.2l73.5-51.9l-36.8-52.2C378.5,266.6,367.2,276.5,354.6,285.3
	z"/>
<path class="st0" d="M369.7,386.9l73.5-51.9l17.3,24.5L387,411.4L369.7,386.9z"/>
<path class="st0" d="M503.8,420.8l-26-36.8l-73.5,51.9l25.9,36.8c8.8,12.4,22.7,19,36.8,19c9,0,18-2.7,25.9-8.2
	C513.2,469.2,518.1,441,503.8,420.8z"/>
<path class="st0" d="M330,377c0-8.3-6.7-15-15-15H75c-8.3,0-15,6.7-15,15v45h270V377z"/>
<path class="st0" d="M375,452H15c-8.3,0-15,6.7-15,15v30c0,8.3,6.7,15,15,15h360c8.3,0,15-6.7,15-15v-30
	C390,458.7,383.3,452,375,452z"/>
</svg>
