<?xml version="1.0" encoding="utf-8"?>
<!-- Generator: Adobe Illustrator 22.0.1, SVG Export Plug-In . SVG Version: 6.00 Build 0)  -->
<svg version="1.1" id="Capa_1" xmlns="http://www.w3.org/2000/svg" xmlns:xlink="http://www.w3.org/1999/xlink" x="0px" y="0px"
	 viewBox="0 0 512 512" style="enable-background:new 0 0 512 512;" xml:space="preserve">
<style type="text/css">
	.st0{fill:#F9BC23;}
</style>
<g>
	<path class="st0" d="M414,0H98c-8.3,0-15,6.7-15,15v421.3c0,8.3,6.7,15,15,15h112.9V497c0,4.7,2.2,9.1,5.9,11.9s8.5,3.8,13,2.6
		l26.3-7l26.3,7c1.3,0.3,2.6,0.5,3.8,0.5c3.3,0,6.5-1.1,9.1-3.1c3.7-2.8,5.9-7.2,5.9-11.9v-45.7H414c8.3,0,15-6.7,15-15V15
		C429,6.7,422.3,0,414,0z M346.4,180.6H165.6c-8.3,0-15-6.7-15-15s6.7-15,15-15h180.8c8.3,0,15,6.7,15,15S354.7,180.6,346.4,180.6z
		 M361.4,225.9c0,8.3-6.7,15-15,15H165.6c-8.3,0-15-6.7-15-15s6.7-15,15-15h180.8C354.7,210.9,361.4,217.6,361.4,225.9z
		 M150.6,105.4c0-8.3,6.7-15,15-15h120.5c8.3,0,15,6.7,15,15s-6.7,15-15,15H165.6C157.3,120.4,150.6,113.7,150.6,105.4z
		 M150.6,286.1c0-8.3,6.7-15,15-15h180.8c8.3,0,15,6.7,15,15s-6.7,15-15,15H165.6C157.3,301.1,150.6,294.4,150.6,286.1z M256,451.8
		c-32.1,0-58.1-26.1-58.1-58.1s26.1-58.1,58.1-58.1s58.1,26.1,58.1,58.1S288.1,451.8,256,451.8z"/>
	<circle class="st0" cx="256" cy="393.6" r="28.1"/>
</g>
</svg>
