<?xml version="1.0" encoding="utf-8"?>
<!-- Generator: Adobe Illustrator 22.0.1, SVG Export Plug-In . SVG Version: 6.00 Build 0)  -->
<svg version="1.1" id="Layer_1" xmlns="http://www.w3.org/2000/svg" xmlns:xlink="http://www.w3.org/1999/xlink" x="0px" y="0px"
	 viewBox="0 0 512 512" style="enable-background:new 0 0 512 512;" xml:space="preserve">
<style type="text/css">
	.st0{fill:#F9BC23;}
</style>
<path class="st0" d="M497,482h-15v-19.8c0-6.2-5-11.3-11.3-11.3H41.3C35,451,30,456,30,462.3V482H15c-8.3,0-15,6.7-15,15
	s6.7,15,15,15h482c8.3,0,15-6.7,15-15S505.3,482,497,482z"/>
<path class="st0" d="M60,301h91v120H60V301z"/>
<path class="st0" d="M482,136c0-5.4-2.9-10.4-7.6-13L263.4,2c-4.6-2.6-10.3-2.6-14.9,0l-211,121c-4.7,2.7-7.6,7.6-7.6,13v45h452v-45
	H482z M256,151c-24.8,0-45-20.2-45-45s20.2-45,45-45s45,20.2,45,45S280.8,151,256,151z"/>
<path class="st0" d="M256,91c-8.3,0-15,6.7-15,15s6.7,15,15,15c8.3,0,15-6.7,15-15S264.3,91,256,91z"/>
<path class="st0" d="M497,211H15c-8.3,0-15,6.7-15,15v30c0,8.3,6.7,15,15,15h482c8.3,0,15-6.7,15-15v-30
	C512,217.7,505.3,211,497,211z"/>
<path class="st0" d="M211,301h90v120h-90V301z"/>
<path class="st0" d="M361,301h91v120h-91V301z"/>
</svg>
