<?xml version="1.0" encoding="utf-8"?>
<!-- Generator: Adobe Illustrator 22.0.1, SVG Export Plug-In . SVG Version: 6.00 Build 0)  -->
<svg version="1.1" id="Layer_1" xmlns="http://www.w3.org/2000/svg" xmlns:xlink="http://www.w3.org/1999/xlink" x="0px" y="0px"
	 viewBox="0 0 512 511" style="enable-background:new 0 0 512 511;" xml:space="preserve">
<style type="text/css">
	.st0{fill:#F9BC23;}
</style>
<path class="st0" d="M497,482.5h-45V240l0.4,0.3c6.7,4.7,15.8,3.2,20.6-3.3l36-48c5-6.7,3.6-16.3-3.3-21.2L283,9.5
	c-15.9-11.9-38.1-11.9-53.7-0.2L6.3,167.7c-6.9,5-8.3,14.6-3.3,21.3l36,48c4.9,6.5,14,7.9,20.6,3.3L60,240v242.5H15
	c-8.3,0-15,6.7-15,15s6.7,15,15,15h482c8.3,0,15-6.7,15-15S505.3,482.5,497,482.5z M376,391.5h-15v46c0,24.8-20.2,45-45,45
	c-11.6,0-22-4.5-30-11.7c-8,7.2-18.4,11.7-30,11.7s-22-4.5-30-11.7c-8,7.2-18.4,11.7-30,11.7c-24.8,0-45-20.2-45-45v-46h-15
	c-8.3,0-15-6.7-15-15v-90c0-27.8,15.3-51.8,37.8-64.7c-4.9-7.2-7.8-15.9-7.8-25.3c0-24.8,20.2-45,45-45s45,20.2,45,45
	c0,9.3-2.8,17.9-7.7,25.1c8.6,4.9,15.8,12,21.9,20c0.3,0,0.5-0.1,0.8-0.1c7.1,0,13.8,1.8,19.8,4.8c-3-6-4.8-12.7-4.8-19.8
	c0-24.8,20.2-45,45-45s45,20.2,45,45c0,8.8-2.7,17-7.1,24c19.4,14.3,23,37.8,13.8,56.1l-4.9,9.9l26.6,53.3
	C394.4,379.7,387.1,391.5,376,391.5z"/>
<path class="st0" d="M258,331.5c-8.3,0-15,6.7-15,15v91c0,8.3,6.7,15,15,15c8.3,0,15-6.7,15-15v-91C273,338.2,266.3,331.5,258,331.5
	z"/>
<path class="st0" d="M258,271.5c-8.3,0-15,6.7-15,15s6.7,15,15,15c8.3,0,15-6.7,15-15S266.3,271.5,258,271.5z"/>
<path class="st0" d="M198,211.5c8.3,0,15-6.7,15-15s-6.7-15-15-15s-15,6.7-15,15C183,204.7,189.7,211.5,198,211.5z"/>
<path class="st0" d="M198,241.5c-24.8,0-45,20.2-45,45v75h15c8.3,0,15,6.7,15,15v61c0,8.3,6.7,15,15,15s15-6.7,15-15
	c0-124.4,0-37.1,0-91c0-11.6,4.5-22,11.7-30c-7.2-8-11.7-18.4-11.7-30c0-13.2,5.8-25,14.9-33.2C219.8,245.9,209.3,241.5,198,241.5z"
	/>
<path class="st0" d="M334.6,309.8l8.3-16.6c5-10-2.3-21.7-13.4-21.7h-22.9c-2.4,0-4.1,0.9-5.8,1.6c1.3,4.3,2.3,8.7,2.3,13.4
	c0,11.6-4.5,22-11.7,30c7.2,8,11.7,18.4,11.7,30v91c0,8.3,6.7,15,15,15s15-6.7,15-15v-61c0-8.3,6.7-15,15-15h5.7l-19.1-38.3
	C332.5,319,332.5,314,334.6,309.8z"/>
<path class="st0" d="M318,241.5c8.3,0,15-6.7,15-15s-6.7-15-15-15s-15,6.7-15,15C303,234.7,309.7,241.5,318,241.5z"/>
</svg>
