<?xml version="1.0" encoding="utf-8"?>
<!-- Generator: Adobe Illustrator 22.0.1, SVG Export Plug-In . SVG Version: 6.00 Build 0)  -->
<svg version="1.1" id="Layer_1" xmlns="http://www.w3.org/2000/svg" xmlns:xlink="http://www.w3.org/1999/xlink" x="0px" y="0px"
	 viewBox="0 0 512 512" style="enable-background:new 0 0 512 512;" xml:space="preserve">
<style type="text/css">
	.st0{fill:#F9BC23;}
</style>
<path class="st0" d="M45,512h91c24.8,0,45-21.2,45-46c0-19.6-12.6-36.3-30.1-42.4c0-0.9,0.1-1.7,0.1-2.6c0-33.1-26.9-60-60-60
	s-61,26.9-61,60c0,0.9,0,1.7,0.1,2.6C12.6,429.7,0,446.4,0,466C0,490.8,20.2,512,45,512z"/>
<path class="st0" d="M480.9,423.6c0-0.9,0.1-1.7,0.1-2.6c0-33.1-26.9-60-60-60s-60,26.9-60,60c0,0.9,0,1.7,0.1,2.6
	c-17.5,6.2-30.1,22.9-30.1,42.4c0,24.8,20.2,46,45,46h90c24.8,0,46-21.2,46-46C512,446.4,498.4,429.7,480.9,423.6z"/>
<path class="st0" d="M256,211c-8.3,0-15,6.7-15,15s6.7,15,15,15c8.3,0,15-6.7,15-15S264.3,211,256,211z"/>
<path class="st0" d="M211,331h90v90h-90V331z"/>
<path class="st0" d="M332.4,405c7.6-42,44.4-74,88.6-74c10.5,0,20.6,1.9,30,5.3v-72.5l6.3,4.5c6.7,4.8,16.1,3.3,20.9-3.5
	c4.8-6.7,3.3-16.1-3.5-20.9l-210-150c-5.2-3.7-12.2-3.7-17.4,0l-211,150c-6.7,4.8-8.3,14.2-3.5,20.9c4.8,6.7,14.2,8.3,20.9,3.5
	l6.3-4.5v72.6c9.4-3.3,20.5-5.3,31-5.3c44.2,0,81,32,88.6,74c0.6,0.4,0.9,1,1.4,1.4V316c0-8.3,6.7-15,15-15h120c8.3,0,15,6.7,15,15
	v90.4C331.5,406,331.9,405.4,332.4,405z M256,271c-24.8,0-45-20.2-45-45s20.2-45,45-45s45,20.2,45,45S280.8,271,256,271z"/>
<path class="st0" d="M316.4,512c-9.5-12.6-15.4-29.1-15.4-46c0-5.1,0.8-10.1,1.8-15h-93.7c1,4.9,1.8,9.9,1.8,15
	c0,16.9-5.9,33.4-15.4,46H316.4z"/>
<path class="st0" d="M436,121h-15h-30h-15c-5.2,0-9.5,2.8-12.2,6.7L451,190v-54C451,127.7,444.3,121,436,121z"/>
</svg>
